<?xml version="1.0" encoding="utf-8"?>
<!-- Generator: Adobe Illustrator 21.0.0, SVG Export Plug-In . SVG Version: 6.00 Build 0)  -->
<svg version="1.1" id="Layer_1" xmlns="http://www.w3.org/2000/svg" xmlns:xlink="http://www.w3.org/1999/xlink" x="0px" y="0px"
	 viewBox="0 0 533.5 250.8" style="enable-background:new 0 0 533.5 250.8;" xml:space="preserve">
<style type="text/css">
	.st0{fill:#FFFFFF;}
</style>
<title>Logo Disatel</title>
<path class="st0" d="M533.5,196.9c0.2,5.8-4.4,10.6-10.2,10.7c-5.8,0.2-10.6-4.4-10.7-10.2c-0.2-5.8,4.4-10.6,10.2-10.7
	c0.1,0,0.2,0,0.3,0c5.6-0.1,10.3,4.4,10.4,10C533.5,196.7,533.5,196.8,533.5,196.9z M515.2,196.9c-0.1,4.3,3.3,8,7.6,8.1
	c0.1,0,0.2,0,0.3,0c4.3,0,7.8-3.5,7.8-7.8c0-0.1,0-0.2,0-0.2c0.2-4.3-3.2-8-7.5-8.2c-4.3-0.2-8,3.2-8.2,7.5
	C515.2,196.5,515.2,196.7,515.2,196.9z M521.5,202.2h-2.4V192c1.3-0.2,2.6-0.3,3.9-0.3c1.2-0.1,2.5,0.2,3.5,0.7c0.7,0.6,1,1.4,1,2.2
	c-0.1,1.2-1,2.1-2.1,2.4v0.1c1,0.4,1.7,1.4,1.9,2.5c0.1,0.9,0.4,1.7,0.7,2.5h-2.5c-0.4-0.8-0.7-1.6-0.8-2.5c-0.1-1-0.9-1.7-1.9-1.6
	c-0.1,0-0.1,0-0.2,0h-1.1L521.5,202.2L521.5,202.2z M521.6,196.5h1.1c1.3,0,2.4-0.4,2.4-1.5s-0.7-1.5-2.2-1.5c-0.4,0-0.9,0-1.3,0.1
	L521.6,196.5L521.6,196.5z"/>
<path class="st0" d="M0,117.6c10.1-1.4,20.3-2.1,30.6-2c18.3,0,30,2.8,39.4,9c10.5,6.9,17.3,18.2,17.3,34.9
	c0,18.6-7.4,30.6-16.6,37.5c-10.5,7.8-26.3,11.2-45.1,11.2c-8.6,0.1-17.1-0.4-25.6-1.6V117.6L0,117.6z M25.7,189
	c1.8,0.2,3.6,0.3,5.4,0.3c16.6,0.3,29-8.5,29-29c0-17.8-11.2-26.2-26.6-26.2c-2.6-0.1-5.2,0.1-7.8,0.5L25.7,189L25.7,189z"/>
<path class="st0" d="M121.1,116.2v90.9H95.4v-90.9H121.1z"/>
<path class="st0" d="M134,182.8c7.8,3.6,16.3,5.6,24.9,5.6c8.8,0,13.1-2.8,13.1-7.4s-4.3-6.9-15.1-10.4c-16.2-5.5-27-13.9-27-27.4
	c0-16,14.4-28.5,38.5-28.5c11.4,0,19.6,2,25.9,4.6l-5.4,19.5c-6.5-2.8-13.6-4.3-20.8-4.3c-7.8,0-12.1,2.7-12.1,6.7
	c0,4.6,5.1,6.3,17.2,10.6c17.2,6.1,24.9,14.7,24.9,27.4c0,15.6-12.8,29-40.8,29c-11.5,0-22.7-2.8-28.1-5.5L134,182.8z"/>
<path class="st0" d="M230.3,186.1l-5.4,21h-26.6l27.9-90.9h34.1l28.6,90.9h-27.7l-6.1-21H230.3z M251.4,168.1l-4.4-16.3
	c-1.4-5.1-3.3-12.5-4.7-17.9H242c-1.4,5.4-2.8,12.8-4.3,17.9l-4.1,16.3H251.4L251.4,168.1z"/>
<path class="st0" d="M304.7,136.7h-24.4v-20.5h75v20.5h-24.9v70.4h-25.7V136.7z"/>
<path class="st0" d="M424.4,170.5H390v16.7h38.5v20h-64.2v-91h62.3v20H390v14.6h34.4L424.4,170.5L424.4,170.5z"/>
<path class="st0" d="M441,116.2h25.7v70.5h36.8v20.4H441V116.2z"/>
<path class="st0" d="M100.5,50.7c5.7,24.4,76.9,43.3,159.1,42.2S403.7,71.1,398,46.7S321.1,3.5,238.9,4.5S94.8,26.3,100.5,50.7
	L100.5,50.7z M85,56.7C77.7,30.4,146,5.6,237.7,1.3S409.6,14.9,417,41.2s-61.1,51.1-152.8,55.4S92.3,82.9,85,56.7L85,56.7L85,56.7z"
	/>
<path class="st0" d="M162.4,10c0-5.5,4.5-10,10-10s10,4.5,10,10s-4.5,10-10,10S162.4,15.5,162.4,10L162.4,10z"/>
<path class="st0" d="M17,240.5c1.2,0.7,2.6,1.1,4,1.1c1.7,0,2.5-0.7,2.5-1.7s-0.6-1.6-2.6-2.3c-3-1.1-4.3-2.7-4.3-4.5
	c0-2.8,2.3-4.9,5.9-4.9c1.4,0,2.8,0.3,4.1,0.9l-0.8,2.8c-1-0.6-2.1-0.9-3.3-0.9c-1.4,0-2.2,0.7-2.2,1.6s0.7,1.5,2.7,2.2
	c2.8,1,4.1,2.5,4.2,4.8c0,2.8-2.2,4.9-6.3,4.9c-1.6,0-3.3-0.3-4.7-1.1L17,240.5z"/>
<path class="st0" d="M35.3,224.2c0,1.2-0.9,2.2-2.1,2.3c-1.2,0-2.2-0.9-2.3-2.1c0-1.2,0.9-2.2,2.1-2.3c0,0,0,0,0.1,0
	c1.2-0.1,2.1,0.8,2.2,2C35.3,224,35.3,224.1,35.3,224.2z M31.1,244.1v-15.6h4V244L31.1,244.1L31.1,244.1z"/>
<path class="st0" d="M42.8,237.4c0.1,2.8,2.3,4,4.8,4c1.5,0,2.9-0.2,4.3-0.7l0.6,2.7c-1.7,0.7-3.6,1-5.4,1c-5.1,0-8-3.1-8-7.9
	c0-4.3,2.6-8.4,7.6-8.4s6.7,4.2,6.7,7.6c0,0.6,0,1.1-0.1,1.7L42.8,237.4L42.8,237.4z M49.6,234.7c0-1.4-0.6-3.8-3.2-3.8
	c-2.4,0-3.5,2.2-3.6,3.8H49.6z"/>
<path class="st0" d="M57.1,233.2c0-1.8,0-3.3-0.1-4.6h3.4l0.2,2.3h0.1c1-1.7,2.8-2.7,4.8-2.7c1.9-0.1,3.6,1.1,4.3,2.9h0.1
	c0.5-0.8,1.1-1.5,1.9-2c0.9-0.6,2-1,3.1-0.9c2.6,0,5.2,1.8,5.2,6.8v9.2h-3.8v-8.6c0-2.6-0.9-4.1-2.8-4.1c-1.3,0-2.4,0.9-2.8,2.1
	c-0.1,0.4-0.2,0.9-0.2,1.3v9.3h-3.8v-9c0-2.2-0.9-3.7-2.7-3.7c-1.3,0.1-2.5,1-2.8,2.2c-0.2,0.4-0.2,0.8-0.2,1.3v9.2h-3.8L57.1,233.2
	L57.1,233.2z"/>
<path class="st0" d="M84.9,233.7c0-2-0.1-3.7-0.1-5.2h3.5l0.2,2.4h0.1c1.2-1.8,3.2-2.8,5.3-2.8c3.6,0,6.6,3.1,6.6,7.9
	c0,5.6-3.5,8.4-7.1,8.4c-1.7,0.1-3.4-0.7-4.4-2.1h-0.1v8.1h-3.9L84.9,233.7L84.9,233.7z M88.8,237.6c0,0.4,0,0.7,0.1,1.1
	c0.4,1.6,1.8,2.7,3.5,2.8c2.5,0,4-2.1,4-5.1c0-2.8-1.3-5-3.9-5c-1.7,0-3.2,1.2-3.5,2.9c-0.1,0.3-0.2,0.7-0.2,1L88.8,237.6
	L88.8,237.6z"/>
<path class="st0" d="M104.3,233.5c0-2.1,0-3.6-0.1-5h3.4l0.1,3h0.1c0.6-1.9,2.3-3.2,4.3-3.3c0.3,0,0.6,0,0.9,0.1v3.7
	c-0.4-0.1-0.8-0.1-1.1-0.1c-1.8,0-3.3,1.2-3.5,3c-0.1,0.4-0.1,0.8-0.1,1.2v8.1h-3.9L104.3,233.5L104.3,233.5z"/>
<path class="st0" d="M118.8,237.4c0.1,2.8,2.3,4,4.8,4c1.5,0,2.9-0.2,4.3-0.7l0.6,2.7c-1.7,0.7-3.6,1-5.4,1c-5.1,0-8-3.1-8-7.9
	c0-4.3,2.6-8.4,7.6-8.4s6.7,4.2,6.7,7.6c0,0.6,0,1.1-0.1,1.7L118.8,237.4L118.8,237.4z M125.7,234.7c0-1.4-0.6-3.8-3.2-3.8
	c-2.4,0-3.5,2.2-3.6,3.8H125.7z"/>
<path class="st0" d="M154.4,239.5c0,1.9,0.1,3.4,0.1,4.7h-3.5l-0.2-2.4h-0.1c-1.1,1.7-3,2.8-5,2.7c-2.9,0-5.4-1.7-5.4-6.8v-9.2h3.9
	v8.5c0,2.6,0.8,4.3,2.9,4.3c1.3,0,2.5-0.9,3-2.1c0.1-0.4,0.2-0.8,0.2-1.2v-9.4h3.9L154.4,239.5L154.4,239.5z"/>
<path class="st0" d="M159.3,233.2c0-1.8,0-3.3-0.1-4.6h3.5l0.2,2.3h0.1c1.1-1.7,3-2.8,5-2.7c2.7,0,5.5,1.8,5.5,6.7v9.2h-3.9v-8.8
	c0-2.2-0.8-3.9-3-3.9c-1.4,0-2.6,1-3.1,2.3c-0.1,0.4-0.2,0.8-0.2,1.3v9.1h-4L159.3,233.2L159.3,233.2z"/>
<path class="st0" d="M187,244.1l-0.3-1.7h-0.1c-1.1,1.4-2.9,2.2-4.6,2.1c-2.6,0.1-4.7-1.8-4.9-4.4c0-0.1,0-0.2,0-0.3
	c0-3.9,3.5-5.9,9.2-5.9v-0.3c0-1-0.4-2.7-3.2-2.7c-1.5,0-2.9,0.4-4.2,1.1l-0.8-2.6c1.7-0.9,3.7-1.4,5.6-1.4c5,0,6.4,3.2,6.4,6.6v5.6
	c0,1.3,0.1,2.5,0.2,3.7L187,244.1L187,244.1z M186.5,236.5c-2.8-0.1-5.4,0.5-5.4,2.9c-0.1,1.1,0.7,2.1,1.9,2.2c0.1,0,0.2,0,0.4,0
	c1.4,0,2.6-0.8,3.1-2.1c0.1-0.3,0.1-0.6,0.1-0.9V236.5z"/>
<path class="st0" d="M202.2,240.5c1.2,0.7,2.6,1.1,4,1.1c1.7,0,2.5-0.7,2.5-1.7s-0.6-1.6-2.6-2.3c-3-1.1-4.3-2.7-4.3-4.5
	c0-2.8,2.3-4.9,5.9-4.9c1.4,0,2.8,0.3,4.1,0.9l-0.8,2.8c-1-0.6-2.1-0.9-3.3-0.9c-1.4,0-2.2,0.7-2.2,1.6s0.7,1.5,2.7,2.2
	c2.8,1,4.1,2.5,4.2,4.8c0,2.8-2.2,4.9-6.3,4.9c-1.6,0-3.3-0.3-4.7-1.1L202.2,240.5z"/>
<path class="st0" d="M231.2,236.2c0,5.7-4,8.3-8,8.3c-4.4,0-7.8-3-7.8-8s3.4-8.3,8.1-8.3S231.2,231.5,231.2,236.2z M219.4,236.3
	c0,3,1.5,5.3,3.9,5.3c2.2,0,3.8-2.2,3.8-5.3c0-2.4-1.1-5.2-3.8-5.2S219.4,233.7,219.4,236.3L219.4,236.3z"/>
<path class="st0" d="M235.1,221.4h4v22.7h-4V221.4z"/>
<path class="st0" d="M257.9,239.5c0,1.9,0.1,3.4,0.1,4.7h-3.5l-0.2-2.4h-0.1c-1.1,1.7-3,2.8-5,2.7c-2.9,0-5.4-1.7-5.4-6.8v-9.2h3.9
	v8.5c0,2.6,0.8,4.3,2.9,4.3c1.3,0,2.5-0.9,3-2.1c0.1-0.4,0.2-0.8,0.2-1.2v-9.4h3.9L257.9,239.5L257.9,239.5z"/>
<path class="st0" d="M274.2,243.6c-1.4,0.6-2.9,0.8-4.4,0.8c-4.9,0-8-3.1-8-7.9c0-4.7,3.2-8.3,8.7-8.3c1.3,0,2.6,0.2,3.8,0.7
	l-0.7,2.9c-0.9-0.4-2-0.6-3-0.6c-3,0-4.8,2.2-4.8,5c0,3.2,2.1,5,4.8,5c1.1,0,2.1-0.2,3.1-0.6L274.2,243.6z"/>
<path class="st0" d="M282,224.2c0,1.2-0.9,2.2-2.1,2.3c-1.2,0-2.2-0.9-2.3-2.1c0-1.2,0.9-2.2,2.1-2.3c0,0,0,0,0.1,0
	c1.2-0.1,2.1,0.8,2.2,2C282,224,282,224.1,282,224.2z M277.8,244.1v-15.6h4V244L277.8,244.1L277.8,244.1z"/>
<path class="st0" d="M301.4,236.2c0,5.7-4,8.3-8,8.3c-4.4,0-7.8-3-7.8-8s3.4-8.3,8.1-8.3S301.4,231.5,301.4,236.2z M289.7,236.3
	c0,3,1.5,5.3,3.9,5.3c2.2,0,3.8-2.2,3.8-5.3c0-2.4-1.1-5.2-3.8-5.2S289.7,233.7,289.7,236.3L289.7,236.3z M298.2,221.8l-3.9,4.7
	h-2.7l2.8-4.7L298.2,221.8L298.2,221.8z"/>
<path class="st0" d="M305.3,233.2c0-1.8,0-3.3-0.1-4.6h3.5l0.2,2.3h0.1c1.1-1.7,3-2.8,5-2.7c2.7,0,5.5,1.8,5.5,6.7v9.2h-3.9v-8.8
	c0-2.2-0.8-3.9-3-3.9c-1.4,0-2.6,1-3.1,2.3c-0.1,0.4-0.2,0.8-0.2,1.3v9.1h-4L305.3,233.2L305.3,233.2z"/>
<path class="st0" d="M335.7,224.2c0,1.2-0.9,2.2-2.1,2.3c-1.2,0-2.2-0.9-2.3-2.1c0-1.2,0.9-2.2,2.1-2.3c0,0,0,0,0.1,0
	c1.2-0.1,2.1,0.8,2.2,2C335.7,224,335.7,224.1,335.7,224.2z M331.5,244.1v-15.6h4V244L331.5,244.1L331.5,244.1z"/>
<path class="st0" d="M340.3,233.2c0-1.8,0-3.3-0.1-4.6h3.5l0.2,2.3h0.1c1.1-1.7,3-2.8,5-2.7c2.7,0,5.5,1.8,5.5,6.7v9.2h-3.9v-8.8
	c0-2.2-0.8-3.9-3-3.9c-1.4,0-2.6,1-3.1,2.3c-0.1,0.4-0.2,0.8-0.2,1.3v9.1h-4L340.3,233.2L340.3,233.2z"/>
<path class="st0" d="M363.6,224.1v4.4h3.7v3h-3.7v6.9c0,1.9,0.5,2.9,2,2.9c0.5,0,1-0.1,1.5-0.2l0.1,3c-0.9,0.3-1.9,0.4-2.8,0.4
	c-1.3,0.1-2.5-0.4-3.4-1.3c-0.8-0.9-1.2-2.3-1.2-4.4v-7.3h-2.2v-3h2.2v-3.5L363.6,224.1z"/>
<path class="st0" d="M373.6,237.4c0.1,2.8,2.3,4,4.8,4c1.5,0,2.9-0.2,4.3-0.7l0.6,2.7c-1.7,0.7-3.6,1-5.4,1c-5.1,0-8-3.1-8-7.9
	c0-4.3,2.6-8.4,7.6-8.4s6.7,4.2,6.7,7.6c0,0.6,0,1.1-0.1,1.7L373.6,237.4L373.6,237.4z M380.4,234.7c0-1.4-0.6-3.8-3.2-3.8
	c-2.4,0-3.5,2.2-3.6,3.8H380.4z"/>
<path class="st0" d="M388,221.4h4v22.7h-4V221.4z"/>
<path class="st0" d="M401,224.2c0,1.2-0.9,2.2-2.1,2.3c-1.2,0-2.2-0.9-2.3-2.1c0-1.2,0.9-2.2,2.1-2.3c0,0,0,0,0.1,0
	c1.2-0.1,2.1,0.8,2.2,2C401,224,401,224.1,401,224.2z M396.8,244.1v-15.6h4V244L396.8,244.1L396.8,244.1z"/>
<path class="st0" d="M419.9,228.5c-0.1,1.1-0.1,2.3-0.1,4.5v8.8c0,3.3-0.7,5.6-2.3,7.1c-1.7,1.3-3.8,2-6,1.9
	c-1.9,0.1-3.8-0.4-5.4-1.2l0.9-3c1.4,0.8,3,1.2,4.5,1.2c2.6,0,4.5-1.3,4.5-4.7v-1.3h-0.1c-1,1.5-2.7,2.4-4.5,2.3
	c-3.9,0-6.6-3.2-6.6-7.6c0-5.1,3.3-8.2,7.1-8.2c1.8-0.1,3.6,0.8,4.5,2.4h0.1l0.2-2.1L419.9,228.5L419.9,228.5z M415.8,234.7
	c0-0.4,0-0.7-0.1-1.1c-0.3-1.5-1.7-2.5-3.2-2.5c-2.2,0-3.8,1.9-3.8,5.1c0,2.7,1.3,4.8,3.8,4.8c1.5,0,2.8-1,3.2-2.4
	c0.1-0.5,0.2-0.9,0.2-1.4L415.8,234.7L415.8,234.7z"/>
<path class="st0" d="M427.4,237.4c0.1,2.8,2.3,4,4.8,4c1.5,0,2.9-0.2,4.3-0.7l0.6,2.7c-1.7,0.7-3.6,1-5.4,1c-5.1,0-8-3.1-8-7.9
	c0-4.3,2.6-8.4,7.6-8.4s6.7,4.2,6.7,7.6c0,0.6,0,1.1-0.1,1.7L427.4,237.4L427.4,237.4z M434.2,234.7c0-1.4-0.6-3.8-3.2-3.8
	c-2.4,0-3.5,2.2-3.6,3.8H434.2z"/>
<path class="st0" d="M441.8,233.2c0-1.8,0-3.3-0.1-4.6h3.5l0.2,2.3h0.1c1.1-1.7,3-2.8,5-2.7c2.7,0,5.5,1.8,5.5,6.7v9.2H452v-8.8
	c0-2.2-0.8-3.9-3-3.9c-1.4,0-2.6,1-3.1,2.3c-0.1,0.4-0.2,0.8-0.2,1.3v9.1h-4L441.8,233.2L441.8,233.2z"/>
<path class="st0" d="M465.1,224.1v4.4h3.7v3h-3.7v6.9c0,1.9,0.5,2.9,2,2.9c0.5,0,1-0.1,1.5-0.2l0.1,3c-0.9,0.3-1.9,0.4-2.8,0.4
	c-1.3,0.1-2.5-0.4-3.4-1.3c-0.8-0.9-1.2-2.3-1.2-4.4v-7.3H459v-3h2.2v-3.5L465.1,224.1z"/>
<path class="st0" d="M475,237.4c0.1,2.8,2.3,4,4.8,4c1.5,0,2.9-0.2,4.3-0.7l0.6,2.7c-1.7,0.7-3.6,1-5.4,1c-5.1,0-8-3.1-8-7.9
	c0-4.3,2.6-8.4,7.6-8.4s6.7,4.2,6.7,7.6c0,0.6,0,1.1-0.1,1.7L475,237.4L475,237.4z M481.8,234.7c0-1.4-0.6-3.8-3.2-3.8
	c-2.4,0-3.5,2.2-3.6,3.8H481.8z"/>
</svg>
