<svg class="logo" id="Layer_1" data-name="Layer 1" xmlns="http://www.w3.org/2000/svg" viewBox="0 0 533.55 250.78"><defs><style>.cls-1{fill:#434a4f;}.cls-2{fill:#e11b22;}</style></defs><title>Logo Disatel</title><path class="cls-1" d="M761.56,348.39a10.45,10.45,0,1,1-10.42-10.17A10.22,10.22,0,0,1,761.56,348.39Zm-18.29,0a7.88,7.88,0,0,0,7.94,8.12,7.79,7.79,0,0,0,7.75-8.06A7.85,7.85,0,1,0,743.27,348.39Zm6.26,5.33h-2.36V343.55a20.66,20.66,0,0,1,3.91-.31,6.33,6.33,0,0,1,3.53.74,2.82,2.82,0,0,1,1,2.23,2.6,2.6,0,0,1-2.11,2.36v0.12a3,3,0,0,1,1.86,2.48,7.78,7.78,0,0,0,.74,2.54h-2.54a8.72,8.72,0,0,1-.81-2.48,1.79,1.79,0,0,0-2.11-1.61h-1.12v4.09ZM749.6,348h1.12c1.3,0,2.36-.43,2.36-1.49s-0.68-1.55-2.17-1.55a5.66,5.66,0,0,0-1.3.12V348Z" transform="translate(-228.02 -151.54)"/><path class="cls-1" d="M228,269.1a200.76,200.76,0,0,1,30.56-2c18.34,0,30,2.83,39.37,9,10.52,6.88,17.34,18.2,17.34,34.92,0,18.61-7.39,30.61-16.63,37.48-10.52,7.82-26.3,11.19-45.06,11.19A164.67,164.67,0,0,1,228,358.09v-89Zm25.73,71.46a33.49,33.49,0,0,0,5.4.27c16.63,0.27,29-8.49,29-29,0-17.8-11.23-26.16-26.58-26.16a42,42,0,0,0-7.82.54v54.33Z" transform="translate(-228.02 -151.54)"/><path class="cls-1" d="M349.16,267.75v90.87H323.43V267.75h25.73Z" transform="translate(-228.02 -151.54)"/><path class="cls-1" d="M362,334.36A60.22,60.22,0,0,0,386.91,340c8.81,0,13.08-2.83,13.08-7.42s-4.27-6.87-15.07-10.38c-16.2-5.53-27-13.89-27-27.37,0-16,14.36-28.45,38.52-28.45,11.37,0,19.62,2,25.87,4.58l-5.4,19.55a52.12,52.12,0,0,0-20.75-4.31c-7.82,0-12.08,2.7-12.08,6.74,0,4.58,5.12,6.34,17.2,10.65,17.2,6.07,24.88,14.7,24.88,27.37,0,15.64-12.79,29-40.79,29-11.51,0-22.74-2.83-28.14-5.53Z" transform="translate(-228.02 -151.54)"/><path class="cls-1" d="M458.28,337.59l-5.4,21H426.3l27.86-90.87h34.11l28.57,90.87H489.12l-6.11-21H458.28Zm21.18-17.93-4.41-16.31c-1.42-5.12-3.27-12.54-4.69-17.93h-0.29c-1.42,5.39-2.84,12.81-4.26,17.93l-4.12,16.31h17.77Z" transform="translate(-228.02 -151.54)"/><path class="cls-1" d="M532.73,288.24H508.28V267.75h75.05v20.49H558.46v70.38H532.73V288.24Z" transform="translate(-228.02 -151.54)"/><path class="cls-1" d="M652.42,322H618v16.72h38.52v20H592.29V267.75h62.26v20H618v14.56h34.4V322Z" transform="translate(-228.02 -151.54)"/><path class="cls-1" d="M669,267.75h25.73v70.52h36.82v20.36H669V267.75Z" transform="translate(-228.02 -151.54)"/><path class="cls-2" d="M328.51,202.21c5.7,24.42,76.92,43.32,159.07,42.22S631.69,222.68,626,198.27,549.08,155,466.93,156,322.81,177.8,328.51,202.21h0Zm-15.5,6c-7.33-26.32,61-51.09,152.72-55.35S637.67,166.44,645,192.75s-61.06,51.08-152.75,55.35S320.32,234.48,313,208.17h0Z" transform="translate(-228.02 -151.54)"/><path class="cls-2" d="M390.41,161.52a10,10,0,1,1,10,10,10,10,0,0,1-10-10h0Z" transform="translate(-228.02 -151.54)"/><path class="cls-1" d="M245,392a8.77,8.77,0,0,0,4,1.12c1.73,0,2.5-.71,2.5-1.73s-0.64-1.6-2.56-2.27c-3-1.06-4.32-2.72-4.29-4.54,0-2.75,2.27-4.9,5.89-4.9a9.14,9.14,0,0,1,4.13.93l-0.77,2.79a7,7,0,0,0-3.3-.9c-1.41,0-2.18.67-2.18,1.63s0.74,1.47,2.72,2.18c2.82,1,4.13,2.46,4.16,4.77,0,2.82-2.21,4.87-6.34,4.87a10.07,10.07,0,0,1-4.74-1.09Z" transform="translate(-228.02 -151.54)"/><path class="cls-1" d="M263.36,375.7a2.21,2.21,0,1,1-2.21-2.14A2.09,2.09,0,0,1,263.36,375.7Zm-4.19,19.94V380h4v15.58h-4Z" transform="translate(-228.02 -151.54)"/><path class="cls-1" d="M270.79,388.95c0.1,2.81,2.3,4,4.8,4a11.73,11.73,0,0,0,4.32-.7l0.58,2.72a14.65,14.65,0,0,1-5.44,1c-5.06,0-8-3.11-8-7.87,0-4.32,2.62-8.38,7.62-8.38s6.72,4.16,6.72,7.58a9.63,9.63,0,0,1-.13,1.66H270.79Zm6.85-2.75c0-1.44-.61-3.81-3.23-3.81-2.43,0-3.46,2.21-3.62,3.81h6.85Z" transform="translate(-228.02 -151.54)"/><path class="cls-1" d="M285.16,384.69c0-1.79,0-3.3-.13-4.64h3.39l0.16,2.3h0.1a5.39,5.39,0,0,1,4.8-2.66,4.49,4.49,0,0,1,4.32,2.88h0.06a5.9,5.9,0,0,1,1.92-2,5.21,5.21,0,0,1,3.14-.93c2.59,0,5.22,1.76,5.22,6.75v9.18h-3.84V387c0-2.59-.9-4.13-2.78-4.13a3,3,0,0,0-2.75,2.08,5.64,5.64,0,0,0-.19,1.31v9.34h-3.84v-9c0-2.18-.86-3.71-2.69-3.71a3.07,3.07,0,0,0-2.82,2.24,3.37,3.37,0,0,0-.22,1.28v9.22h-3.84V384.69Z" transform="translate(-228.02 -151.54)"/><path class="cls-1" d="M312.93,385.23c0-2-.06-3.71-0.13-5.18h3.46l0.19,2.4h0.06a6.07,6.07,0,0,1,5.34-2.75c3.58,0,6.56,3.07,6.56,7.94,0,5.63-3.55,8.35-7.1,8.35a5.12,5.12,0,0,1-4.38-2.08h-0.06V402h-3.94V385.23Zm3.94,3.87a4.06,4.06,0,0,0,.13,1.09,3.56,3.56,0,0,0,3.46,2.75c2.5,0,4-2.08,4-5.15,0-2.75-1.34-5-3.87-5a3.67,3.67,0,0,0-3.52,2.91,3.56,3.56,0,0,0-.16,1v2.4Z" transform="translate(-228.02 -151.54)"/><path class="cls-1" d="M332.29,385.07c0-2.11,0-3.62-.13-5h3.42l0.13,3h0.13a4.65,4.65,0,0,1,4.26-3.33,4.11,4.11,0,0,1,.93.1v3.71a5.43,5.43,0,0,0-1.15-.13,3.47,3.47,0,0,0-3.52,3,6.7,6.7,0,0,0-.13,1.21v8.06h-3.94V385.07Z" transform="translate(-228.02 -151.54)"/><path class="cls-1" d="M346.82,388.95c0.1,2.81,2.3,4,4.8,4a11.73,11.73,0,0,0,4.32-.7l0.58,2.72a14.65,14.65,0,0,1-5.44,1c-5.06,0-8-3.11-8-7.87,0-4.32,2.62-8.38,7.62-8.38s6.72,4.16,6.72,7.58a9.62,9.62,0,0,1-.13,1.66H346.82Zm6.85-2.75c0-1.44-.61-3.81-3.23-3.81-2.43,0-3.46,2.21-3.62,3.81h6.85Z" transform="translate(-228.02 -151.54)"/><path class="cls-1" d="M382.4,391c0,1.86.06,3.39,0.13,4.67h-3.46l-0.19-2.37h-0.06a5.63,5.63,0,0,1-5,2.72c-2.85,0-5.44-1.7-5.44-6.78V380h3.94v8.48c0,2.59.83,4.26,2.91,4.26a3.32,3.32,0,0,0,3-2.11,3.57,3.57,0,0,0,.22-1.21V380h3.94V391Z" transform="translate(-228.02 -151.54)"/><path class="cls-1" d="M387.3,384.69c0-1.79,0-3.3-.13-4.64h3.46l0.19,2.34h0.1a5.62,5.62,0,0,1,5-2.69c2.72,0,5.54,1.76,5.54,6.69v9.25h-3.94v-8.8c0-2.24-.83-3.94-3-3.94a3.3,3.3,0,0,0-3.07,2.3,4,4,0,0,0-.16,1.28v9.15h-4V384.69Z" transform="translate(-228.02 -151.54)"/><path class="cls-1" d="M415,395.63l-0.26-1.73h-0.1A5.79,5.79,0,0,1,410,396a4.63,4.63,0,0,1-4.9-4.64c0-3.94,3.49-5.92,9.25-5.89V385.2c0-1-.42-2.72-3.17-2.72a8.25,8.25,0,0,0-4.19,1.15l-0.77-2.56a11.21,11.21,0,0,1,5.63-1.38c5,0,6.43,3.17,6.43,6.56v5.63a25,25,0,0,0,.22,3.74H415ZM414.5,388c-2.78-.06-5.44.54-5.44,2.91a2.07,2.07,0,0,0,2.24,2.24,3.19,3.19,0,0,0,3.07-2.14,2.84,2.84,0,0,0,.13-0.87V388Z" transform="translate(-228.02 -151.54)"/><path class="cls-1" d="M430.21,392a8.77,8.77,0,0,0,4,1.12c1.73,0,2.5-.71,2.5-1.73s-0.64-1.6-2.56-2.27c-3-1.06-4.32-2.72-4.29-4.54,0-2.75,2.27-4.9,5.89-4.9a9.14,9.14,0,0,1,4.13.93l-0.77,2.79a7,7,0,0,0-3.3-.9c-1.41,0-2.18.67-2.18,1.63s0.74,1.47,2.72,2.18c2.82,1,4.13,2.46,4.16,4.77,0,2.82-2.21,4.87-6.34,4.87a10.07,10.07,0,0,1-4.74-1.09Z" transform="translate(-228.02 -151.54)"/><path class="cls-1" d="M459.2,387.7c0,5.73-4,8.29-8,8.29-4.42,0-7.81-3-7.81-8s3.36-8.26,8.06-8.26S459.2,383,459.2,387.7Zm-11.74.16c0,3,1.47,5.28,3.87,5.28,2.24,0,3.81-2.21,3.81-5.34,0-2.43-1.09-5.21-3.78-5.21S447.46,385.27,447.46,387.86Z" transform="translate(-228.02 -151.54)"/><path class="cls-1" d="M463.07,372.91h4v22.72h-4V372.91Z" transform="translate(-228.02 -151.54)"/><path class="cls-1" d="M485.89,391c0,1.86.06,3.39,0.13,4.67h-3.46l-0.19-2.37H482.3a5.63,5.63,0,0,1-5,2.72c-2.85,0-5.44-1.7-5.44-6.78V380h3.94v8.48c0,2.59.83,4.26,2.91,4.26a3.32,3.32,0,0,0,3-2.11,3.57,3.57,0,0,0,.22-1.21V380h3.94V391Z" transform="translate(-228.02 -151.54)"/><path class="cls-1" d="M502.24,395.15a11.37,11.37,0,0,1-4.42.8c-4.86,0-8-3.11-8-7.94,0-4.67,3.2-8.32,8.67-8.32a9.82,9.82,0,0,1,3.81.74l-0.7,2.94a7,7,0,0,0-3-.61c-3,0-4.8,2.21-4.77,5.05,0,3.2,2.08,5,4.77,5a7.69,7.69,0,0,0,3.1-.61Z" transform="translate(-228.02 -151.54)"/><path class="cls-1" d="M510,375.7a2.21,2.21,0,1,1-2.21-2.14A2.09,2.09,0,0,1,510,375.7Zm-4.19,19.94V380h4v15.58h-4Z" transform="translate(-228.02 -151.54)"/><path class="cls-1" d="M529.44,387.7c0,5.73-4,8.29-8,8.29-4.42,0-7.81-3-7.81-8s3.36-8.26,8.06-8.26S529.44,383,529.44,387.7Zm-11.74.16c0,3,1.47,5.28,3.87,5.28,2.24,0,3.81-2.21,3.81-5.34,0-2.43-1.09-5.21-3.78-5.21S517.7,385.27,517.7,387.86Zm8.54-14.56L522.3,378h-2.72l2.78-4.73h3.87Z" transform="translate(-228.02 -151.54)"/><path class="cls-1" d="M533.31,384.69c0-1.79,0-3.3-.13-4.64h3.46l0.19,2.34h0.1a5.62,5.62,0,0,1,5-2.69c2.72,0,5.54,1.76,5.54,6.69v9.25h-3.94v-8.8c0-2.24-.83-3.94-3-3.94a3.3,3.3,0,0,0-3.07,2.3,4,4,0,0,0-.16,1.28v9.15h-4V384.69Z" transform="translate(-228.02 -151.54)"/><path class="cls-1" d="M563.71,375.7a2.21,2.21,0,1,1-2.21-2.14A2.09,2.09,0,0,1,563.71,375.7Zm-4.19,19.94V380h4v15.58h-4Z" transform="translate(-228.02 -151.54)"/><path class="cls-1" d="M568.35,384.69c0-1.79,0-3.3-.13-4.64h3.46l0.19,2.34H572a5.62,5.62,0,0,1,5-2.69c2.72,0,5.54,1.76,5.54,6.69v9.25h-3.94v-8.8c0-2.24-.83-3.94-3-3.94a3.3,3.3,0,0,0-3.07,2.3,4,4,0,0,0-.16,1.28v9.15h-4V384.69Z" transform="translate(-228.02 -151.54)"/><path class="cls-1" d="M591.64,375.6V380h3.74V383h-3.74v6.88c0,1.89.51,2.88,2,2.88a5.82,5.82,0,0,0,1.54-.19l0.06,3a8.63,8.63,0,0,1-2.85.38,4.55,4.55,0,0,1-3.39-1.28c-0.83-.89-1.22-2.3-1.22-4.35V383h-2.24V380h2.24v-3.52Z" transform="translate(-228.02 -151.54)"/><path class="cls-1" d="M601.6,388.95c0.1,2.81,2.3,4,4.8,4a11.72,11.72,0,0,0,4.32-.7l0.58,2.72a14.65,14.65,0,0,1-5.44,1c-5.06,0-8-3.11-8-7.87,0-4.32,2.62-8.38,7.62-8.38s6.72,4.16,6.72,7.58a9.73,9.73,0,0,1-.13,1.66H601.6Zm6.85-2.75c0-1.44-.61-3.81-3.23-3.81-2.43,0-3.46,2.21-3.62,3.81h6.85Z" transform="translate(-228.02 -151.54)"/><path class="cls-1" d="M616,372.91h4v22.72h-4V372.91Z" transform="translate(-228.02 -151.54)"/><path class="cls-1" d="M629,375.7a2.21,2.21,0,1,1-2.21-2.14A2.09,2.09,0,0,1,629,375.7Zm-4.19,19.94V380h4v15.58h-4Z" transform="translate(-228.02 -151.54)"/><path class="cls-1" d="M647.9,380c-0.06,1.06-.13,2.34-0.13,4.48v8.83c0,3.26-.67,5.6-2.3,7.07a9,9,0,0,1-6,1.89,11,11,0,0,1-5.44-1.25l0.86-3a9.4,9.4,0,0,0,4.54,1.18c2.56,0,4.48-1.34,4.48-4.7v-1.34h-0.06a5.26,5.26,0,0,1-4.54,2.3c-3.87,0-6.62-3.2-6.62-7.62,0-5.12,3.33-8.22,7.07-8.22a4.91,4.91,0,0,1,4.51,2.43h0.06l0.16-2.08h3.42Zm-4.06,6.24a3.84,3.84,0,0,0-.13-1.06,3.27,3.27,0,0,0-3.2-2.53c-2.21,0-3.84,1.92-3.84,5.09,0,2.66,1.34,4.8,3.81,4.8a3.36,3.36,0,0,0,3.2-2.37,6.79,6.79,0,0,0,.16-1.41v-2.53Z" transform="translate(-228.02 -151.54)"/><path class="cls-1" d="M655.42,388.95c0.1,2.81,2.3,4,4.8,4a11.72,11.72,0,0,0,4.32-.7l0.58,2.72a14.65,14.65,0,0,1-5.44,1c-5.06,0-8-3.11-8-7.87,0-4.32,2.62-8.38,7.62-8.38s6.72,4.16,6.72,7.58a9.73,9.73,0,0,1-.13,1.66H655.42Zm6.85-2.75c0-1.44-.61-3.81-3.23-3.81-2.43,0-3.46,2.21-3.62,3.81h6.85Z" transform="translate(-228.02 -151.54)"/><path class="cls-1" d="M669.79,384.69c0-1.79,0-3.3-.13-4.64h3.46l0.19,2.34h0.1a5.62,5.62,0,0,1,5-2.69c2.72,0,5.54,1.76,5.54,6.69v9.25H680v-8.8c0-2.24-.83-3.94-3-3.94a3.3,3.3,0,0,0-3.07,2.3,4,4,0,0,0-.16,1.28v9.15h-4V384.69Z" transform="translate(-228.02 -151.54)"/><path class="cls-1" d="M693.08,375.6V380h3.74V383h-3.74v6.88c0,1.89.51,2.88,2,2.88a5.82,5.82,0,0,0,1.54-.19l0.06,3a8.63,8.63,0,0,1-2.85.38,4.55,4.55,0,0,1-3.39-1.28c-0.83-.89-1.22-2.3-1.22-4.35V383H687V380h2.24v-3.52Z" transform="translate(-228.02 -151.54)"/><path class="cls-1" d="M703,388.95c0.1,2.81,2.3,4,4.8,4a11.72,11.72,0,0,0,4.32-.7l0.58,2.72a14.65,14.65,0,0,1-5.44,1c-5.06,0-8-3.11-8-7.87,0-4.32,2.62-8.38,7.62-8.38s6.72,4.16,6.72,7.58a9.73,9.73,0,0,1-.13,1.66H703Zm6.85-2.75c0-1.44-.61-3.81-3.23-3.81-2.43,0-3.46,2.21-3.62,3.81h6.85Z" transform="translate(-228.02 -151.54)"/></svg>